{"title":"Christine 1983 DVD9rip English Kla","uid":5859958,"size":1788245845,"categoryP":"video","categoryS":"movies","magnet":"?xt=urn:btih:d889554d39ed042e7b2856373b5f96cd10d19100&amp;dn=Christine+1983+DVD9rip+English+Kla&amp;tr=udp%3A%2F%2Ftracker.openbittorrent.com%3A80&amp;tr=udp%3A%2F%2Fopen.demonii.com%3A1337&amp;tr=udp%3A%2F%2Ftracker.coppersurfer.tk%3A6969&amp;tr=udp%3A%2F%2Fexodus.desync.com%3A6969","seeders":0,"leechers":0,"uploader":"Klambake","files":-1,"time":1285930127,"description":"With: Keith Gordon, John Stockwell en Alexandra Paul\n\nHighschool geek Arnie Cunningham falls in love with &quot;Christine&quot;, a bright red 1958 Plymouth Fury which has seen much better days. Setting himself the task of restoring the car to its original condition, his friends notice that the car is not the only thing that is changing. Arnie seems to spend more and more time with his car. He's also developed a sort of cocky arrogance which does not seem like the real Arnie at all. \n\nGeneral:\n\nComplete name                    : Klambake\\Christine\\Christine.avi\nFormat                           : AVI\nFormat/Info                      : Audio Video Interleave\nFile size                        : 1.66 GiB\nDuration                         : 1h 45mn\nOverall bit rate                 : 2 258 Kbps\n\nVideo:\n\nFormat                           : MPEG-4 Visual\nFormat profile                   : Simple@L3\nFormat settings, BVOP            : No\nFormat settings, QPel            : No\nFormat settings, GMC             : No warppoints\nFormat settings, Matrix          : Default (H.263)\nCodec ID                         : XVID\nCodec ID/Hint                    : XviD\nDuration                         : 1h 45mn\nBit rate                         : 1 991 Kbps\nWidth                            : 720 pixels\nHeight                           : 400 pixels\nDisplay aspect ratio             : 16:9\nFrame rate                       : 25.000 fps\nColor space                      : YUV\nChroma subsampling               : 4:2:0\nBit depth                        : 8 bits\nScan type                        : Progressive\nBits/(Pixel*Frame)               : 0.277\nStream size                      : 1.47 GiB (88%)\nWriting library                  : XviD 1.1.2 (UTC 2006-11-01)\n\nAudio:\n\nFormat                           : AC-3\nFormat/Info                      : Audio Coding 3\nFormat profile                   : Dolby Digital\nMode extension                   : CM (complete main)\nCodec ID                         : 2000\nDuration                         : 1h 45mn\nBit rate mode                    : Constant\nBit rate                         : 256 Kbps\nChannel(s)                       : 2 channels\nChannel positions                : Front: L R\nSampling rate                    : 48.0 KHz\nStream size                      : 193 MiB (11%)\nAlignment                        : Aligned on interleaves\nInterleave, duration             : 32 ms (0.80 video frame)\nInterleave, preload duration     : 576 ms","torrent":{"xt":"urn:btih:d889554d39ed042e7b2856373b5f96cd10d19100","amp;dn":"Christine+1983+DVD9rip+English+Kla","amp;tr":["udp%3A%2F%2Ftracker.openbittorrent.com%3A80","udp%3A%2F%2Fopen.demonii.com%3A1337","udp%3A%2F%2Ftracker.coppersurfer.tk%3A6969","udp%3A%2F%2Fexodus.desync.com%3A6969"],"infoHash":"d889554d39ed042e7b2856373b5f96cd10d19100","infoHashBuffer":{"type":"Buffer","data":[216,137,85,77,57,237,4,46,123,40,86,55,59,95,150,205,16,209,145,0]},"announce":[],"urlList":[]}}